<svg xmlns="http://www.w3.org/2000/svg" id="export" class="canvas" preserveAspectRatio="xMidYMid meet" style="" width="115" height="912"><rect id="background" fill="#fff" pointer-events="all" width="115" height="912"/><g id="origin" transform="translate(5.19296875, 5.19296875) scale(1)"><g id="clusters" class="clusters"/><g id="edge-paths" class="edge-paths"><defs><marker id="arrowhead" viewBox="0 0 10 10" refX="9" refY="5" markerUnits="strokeWidth" markerWidth="8" markerHeight="6" orient="auto" style="fill: rgb(0, 0, 0);"><path d="M 0 0 L 10 5 L 0 10 L 4 5 z" style="stroke-width: 1;"/></marker><marker id="arrowhead-select" viewBox="0 0 10 10" refX="9" refY="5" markerUnits="strokeWidth" markerWidth="8" markerHeight="6" orient="auto" style="fill: rgb(238, 0, 0);"><path d="M 0 0 L 10 5 L 0 10 L 4 5 z" style="stroke-width: 1;"/></marker><marker id="arrowhead-hover" viewBox="0 0 10 10" refX="9" refY="5" markerUnits="strokeWidth" markerWidth="8" markerHeight="6" orient="auto"><path d="M 0 0 L 10 5 L 0 10 L 4 5 z" style="stroke-width: 1;"/></marker></defs><path id="edge-input_layer" class="edge-path" d="M51.9296875,23L51.9296875,24.666666666666668C51.9296875,26.333333333333332,51.9296875,29.666666666666668,51.9296875,33C51.9296875,36.333333333333336,51.9296875,39.666666666666664,51.9296875,43C51.9296875,46.333333333333336,51.9296875,49.666666666666664,51.9296875,53C51.9296875,56.333333333333336,51.9296875,59.666666666666664,51.9296875,61.333333333333336L51.9296875,63" style="stroke: rgb(0, 0, 0); stroke-width: 1px; fill: none; marker-end: url(&quot;#arrowhead&quot;);"/><path class="edge-path-hit-test" d="M51.9296875,23L51.9296875,24.666666666666668C51.9296875,26.333333333333332,51.9296875,29.666666666666668,51.9296875,33C51.9296875,36.333333333333336,51.9296875,39.666666666666664,51.9296875,43C51.9296875,46.333333333333336,51.9296875,49.666666666666664,51.9296875,53C51.9296875,56.333333333333336,51.9296875,59.666666666666664,51.9296875,61.333333333333336L51.9296875,63" style="pointer-events: stroke; stroke-width: 0.5em; fill: none; stroke: rgb(0, 0, 0); stroke-opacity: 0.001;"/><path id="edge-conv2d" class="edge-path" d="M51.9296875,120L51.9296875,121.66666666666667C51.9296875,123.33333333333333,51.9296875,126.66666666666667,51.9296875,130C51.9296875,133.33333333333334,51.9296875,136.66666666666666,51.9296875,138.33333333333334L51.9296875,140" style="stroke: rgb(0, 0, 0); stroke-width: 1px; fill: none; marker-end: url(&quot;#arrowhead&quot;);"/><path class="edge-path-hit-test" d="M51.9296875,120L51.9296875,121.66666666666667C51.9296875,123.33333333333333,51.9296875,126.66666666666667,51.9296875,130C51.9296875,133.33333333333334,51.9296875,136.66666666666666,51.9296875,138.33333333333334L51.9296875,140" style="pointer-events: stroke; stroke-width: 0.5em; fill: none; stroke: rgb(0, 0, 0); stroke-opacity: 0.001;"/><path id="edge-activation" class="edge-path" d="M51.9296875,163L51.9296875,164.66666666666666C51.9296875,166.33333333333334,51.9296875,169.66666666666666,51.9296875,173C51.9296875,176.33333333333334,51.9296875,179.66666666666666,51.9296875,181.33333333333334L51.9296875,183" style="stroke: rgb(0, 0, 0); stroke-width: 1px; fill: none; marker-end: url(&quot;#arrowhead&quot;);"/><path class="edge-path-hit-test" d="M51.9296875,163L51.9296875,164.66666666666666C51.9296875,166.33333333333334,51.9296875,169.66666666666666,51.9296875,173C51.9296875,176.33333333333334,51.9296875,179.66666666666666,51.9296875,181.33333333333334L51.9296875,183" style="pointer-events: stroke; stroke-width: 0.5em; fill: none; stroke: rgb(0, 0, 0); stroke-opacity: 0.001;"/><path id="edge-max_pooling2d" class="edge-path" d="M51.9296875,206L51.9296875,207.66666666666666C51.9296875,209.33333333333334,51.9296875,212.66666666666666,51.9296875,216C51.9296875,219.33333333333334,51.9296875,222.66666666666666,51.9296875,224.33333333333334L51.9296875,226" style="stroke: rgb(0, 0, 0); stroke-width: 1px; fill: none; marker-end: url(&quot;#arrowhead&quot;);"/><path class="edge-path-hit-test" d="M51.9296875,206L51.9296875,207.66666666666666C51.9296875,209.33333333333334,51.9296875,212.66666666666666,51.9296875,216C51.9296875,219.33333333333334,51.9296875,222.66666666666666,51.9296875,224.33333333333334L51.9296875,226" style="pointer-events: stroke; stroke-width: 0.5em; fill: none; stroke: rgb(0, 0, 0); stroke-opacity: 0.001;"/><path id="edge-conv2d_1" class="edge-path" d="M51.9296875,283L51.9296875,284.6666666666667C51.9296875,286.3333333333333,51.9296875,289.6666666666667,51.9296875,293C51.9296875,296.3333333333333,51.9296875,299.6666666666667,51.9296875,301.3333333333333L51.9296875,303" style="stroke: rgb(0, 0, 0); stroke-width: 1px; fill: none; marker-end: url(&quot;#arrowhead&quot;);"/><path class="edge-path-hit-test" d="M51.9296875,283L51.9296875,284.6666666666667C51.9296875,286.3333333333333,51.9296875,289.6666666666667,51.9296875,293C51.9296875,296.3333333333333,51.9296875,299.6666666666667,51.9296875,301.3333333333333L51.9296875,303" style="pointer-events: stroke; stroke-width: 0.5em; fill: none; stroke: rgb(0, 0, 0); stroke-opacity: 0.001;"/><path id="edge-activation_1" class="edge-path" d="M51.9296875,326L51.9296875,327.6666666666667C51.9296875,329.3333333333333,51.9296875,332.6666666666667,51.9296875,336C51.9296875,339.3333333333333,51.9296875,342.6666666666667,51.9296875,344.3333333333333L51.9296875,346" style="stroke: rgb(0, 0, 0); stroke-width: 1px; fill: none; marker-end: url(&quot;#arrowhead&quot;);"/><path class="edge-path-hit-test" d="M51.9296875,326L51.9296875,327.6666666666667C51.9296875,329.3333333333333,51.9296875,332.6666666666667,51.9296875,336C51.9296875,339.3333333333333,51.9296875,342.6666666666667,51.9296875,344.3333333333333L51.9296875,346" style="pointer-events: stroke; stroke-width: 0.5em; fill: none; stroke: rgb(0, 0, 0); stroke-opacity: 0.001;"/><path id="edge-max_pooling2d_1" class="edge-path" d="M51.9296875,369L51.9296875,370.6666666666667C51.9296875,372.3333333333333,51.9296875,375.6666666666667,51.9296875,379C51.9296875,382.3333333333333,51.9296875,385.6666666666667,51.9296875,387.3333333333333L51.9296875,389" style="stroke: rgb(0, 0, 0); stroke-width: 1px; fill: none; marker-end: url(&quot;#arrowhead&quot;);"/><path class="edge-path-hit-test" d="M51.9296875,369L51.9296875,370.6666666666667C51.9296875,372.3333333333333,51.9296875,375.6666666666667,51.9296875,379C51.9296875,382.3333333333333,51.9296875,385.6666666666667,51.9296875,387.3333333333333L51.9296875,389" style="pointer-events: stroke; stroke-width: 0.5em; fill: none; stroke: rgb(0, 0, 0); stroke-opacity: 0.001;"/><path id="edge-conv2d_2" class="edge-path" d="M51.9296875,446L51.9296875,447.6666666666667C51.9296875,449.3333333333333,51.9296875,452.6666666666667,51.9296875,456C51.9296875,459.3333333333333,51.9296875,462.6666666666667,51.9296875,464.3333333333333L51.9296875,466" style="stroke: rgb(0, 0, 0); stroke-width: 1px; fill: none; marker-end: url(&quot;#arrowhead&quot;);"/><path class="edge-path-hit-test" d="M51.9296875,446L51.9296875,447.6666666666667C51.9296875,449.3333333333333,51.9296875,452.6666666666667,51.9296875,456C51.9296875,459.3333333333333,51.9296875,462.6666666666667,51.9296875,464.3333333333333L51.9296875,466" style="pointer-events: stroke; stroke-width: 0.5em; fill: none; stroke: rgb(0, 0, 0); stroke-opacity: 0.001;"/><path id="edge-activation_2" class="edge-path" d="M51.9296875,489L51.9296875,490.6666666666667C51.9296875,492.3333333333333,51.9296875,495.6666666666667,51.9296875,499C51.9296875,502.3333333333333,51.9296875,505.6666666666667,51.9296875,507.3333333333333L51.9296875,509" style="stroke: rgb(0, 0, 0); stroke-width: 1px; fill: none; marker-end: url(&quot;#arrowhead&quot;);"/><path class="edge-path-hit-test" d="M51.9296875,489L51.9296875,490.6666666666667C51.9296875,492.3333333333333,51.9296875,495.6666666666667,51.9296875,499C51.9296875,502.3333333333333,51.9296875,505.6666666666667,51.9296875,507.3333333333333L51.9296875,509" style="pointer-events: stroke; stroke-width: 0.5em; fill: none; stroke: rgb(0, 0, 0); stroke-opacity: 0.001;"/><path id="edge-max_pooling2d_2" class="edge-path" d="M51.9296875,532L51.9296875,533.6666666666666C51.9296875,535.3333333333334,51.9296875,538.6666666666666,51.9296875,542C51.9296875,545.3333333333334,51.9296875,548.6666666666666,51.9296875,550.3333333333334L51.9296875,552" style="stroke: rgb(0, 0, 0); stroke-width: 1px; fill: none; marker-end: url(&quot;#arrowhead&quot;);"/><path class="edge-path-hit-test" d="M51.9296875,532L51.9296875,533.6666666666666C51.9296875,535.3333333333334,51.9296875,538.6666666666666,51.9296875,542C51.9296875,545.3333333333334,51.9296875,548.6666666666666,51.9296875,550.3333333333334L51.9296875,552" style="pointer-events: stroke; stroke-width: 0.5em; fill: none; stroke: rgb(0, 0, 0); stroke-opacity: 0.001;"/><path id="edge-flatten" class="edge-path" d="M51.9296875,575L51.9296875,576.6666666666666C51.9296875,578.3333333333334,51.9296875,581.6666666666666,51.9296875,585C51.9296875,588.3333333333334,51.9296875,591.6666666666666,51.9296875,593.3333333333334L51.9296875,595" style="stroke: rgb(0, 0, 0); stroke-width: 1px; fill: none; marker-end: url(&quot;#arrowhead&quot;);"/><path class="edge-path-hit-test" d="M51.9296875,575L51.9296875,576.6666666666666C51.9296875,578.3333333333334,51.9296875,581.6666666666666,51.9296875,585C51.9296875,588.3333333333334,51.9296875,591.6666666666666,51.9296875,593.3333333333334L51.9296875,595" style="pointer-events: stroke; stroke-width: 0.5em; fill: none; stroke: rgb(0, 0, 0); stroke-opacity: 0.001;"/><path id="edge-dense" class="edge-path" d="M51.9296875,652L51.9296875,653.6666666666666C51.9296875,655.3333333333334,51.9296875,658.6666666666666,51.9296875,662C51.9296875,665.3333333333334,51.9296875,668.6666666666666,51.9296875,670.3333333333334L51.9296875,672" style="stroke: rgb(0, 0, 0); stroke-width: 1px; fill: none; marker-end: url(&quot;#arrowhead&quot;);"/><path class="edge-path-hit-test" d="M51.9296875,652L51.9296875,653.6666666666666C51.9296875,655.3333333333334,51.9296875,658.6666666666666,51.9296875,662C51.9296875,665.3333333333334,51.9296875,668.6666666666666,51.9296875,670.3333333333334L51.9296875,672" style="pointer-events: stroke; stroke-width: 0.5em; fill: none; stroke: rgb(0, 0, 0); stroke-opacity: 0.001;"/><path id="edge-activation_3" class="edge-path" d="M51.9296875,695L51.9296875,696.6666666666666C51.9296875,698.3333333333334,51.9296875,701.6666666666666,51.9296875,705C51.9296875,708.3333333333334,51.9296875,711.6666666666666,51.9296875,713.3333333333334L51.9296875,715" style="stroke: rgb(0, 0, 0); stroke-width: 1px; fill: none; marker-end: url(&quot;#arrowhead&quot;);"/><path class="edge-path-hit-test" d="M51.9296875,695L51.9296875,696.6666666666666C51.9296875,698.3333333333334,51.9296875,701.6666666666666,51.9296875,705C51.9296875,708.3333333333334,51.9296875,711.6666666666666,51.9296875,713.3333333333334L51.9296875,715" style="pointer-events: stroke; stroke-width: 0.5em; fill: none; stroke: rgb(0, 0, 0); stroke-opacity: 0.001;"/><path id="edge-dropout" class="edge-path" d="M51.9296875,738L51.9296875,739.6666666666666C51.9296875,741.3333333333334,51.9296875,744.6666666666666,51.9296875,748C51.9296875,751.3333333333334,51.9296875,754.6666666666666,51.9296875,756.3333333333334L51.9296875,758" style="stroke: rgb(0, 0, 0); stroke-width: 1px; fill: none; marker-end: url(&quot;#arrowhead&quot;);"/><path class="edge-path-hit-test" d="M51.9296875,738L51.9296875,739.6666666666666C51.9296875,741.3333333333334,51.9296875,744.6666666666666,51.9296875,748C51.9296875,751.3333333333334,51.9296875,754.6666666666666,51.9296875,756.3333333333334L51.9296875,758" style="pointer-events: stroke; stroke-width: 0.5em; fill: none; stroke: rgb(0, 0, 0); stroke-opacity: 0.001;"/><path id="edge-dense_1" class="edge-path" d="M51.9296875,815L51.9296875,816.6666666666666C51.9296875,818.3333333333334,51.9296875,821.6666666666666,51.9296875,825C51.9296875,828.3333333333334,51.9296875,831.6666666666666,51.9296875,833.3333333333334L51.9296875,835" style="stroke: rgb(0, 0, 0); stroke-width: 1px; fill: none; marker-end: url(&quot;#arrowhead&quot;);"/><path class="edge-path-hit-test" d="M51.9296875,815L51.9296875,816.6666666666666C51.9296875,818.3333333333334,51.9296875,821.6666666666666,51.9296875,825C51.9296875,828.3333333333334,51.9296875,831.6666666666666,51.9296875,833.3333333333334L51.9296875,835" style="pointer-events: stroke; stroke-width: 0.5em; fill: none; stroke: rgb(0, 0, 0); stroke-opacity: 0.001;"/><path id="edge-activation_4" class="edge-path" d="M51.9296875,858L51.9296875,859.6666666666666C51.9296875,861.3333333333334,51.9296875,864.6666666666666,51.9296875,868C51.9296875,871.3333333333334,51.9296875,874.6666666666666,51.9296875,876.3333333333334L51.9296875,878" style="stroke: rgb(0, 0, 0); stroke-width: 1px; fill: none; marker-end: url(&quot;#arrowhead&quot;);"/><path class="edge-path-hit-test" d="M51.9296875,858L51.9296875,859.6666666666666C51.9296875,861.3333333333334,51.9296875,864.6666666666666,51.9296875,868C51.9296875,871.3333333333334,51.9296875,874.6666666666666,51.9296875,876.3333333333334L51.9296875,878" style="pointer-events: stroke; stroke-width: 0.5em; fill: none; stroke: rgb(0, 0, 0); stroke-opacity: 0.001;"/></g><g id="edge-labels" class="edge-labels"/><g id="nodes" class="nodes"><g id="input-name-input_layer" class="node graph-input" transform="translate(17.82470703125,0)" style=""><g class="node-item graph-item-input" transform="translate(0,0)"><path d="M5,0h58.2099609375a5,5 0 0 1 5,5v13a5,5 0 0 1 -5,5h-58.2099609375a5,5 0 0 1 -5,-5v-13a5,5 0 0 1 5,-5z" style="stroke: rgb(0, 0, 0); fill: rgb(238, 238, 238); stroke-width: 0;"/><text x="6" y="16" style="font-family: -apple-system, BlinkMacSystemFont, &quot;Segoe WPC&quot;, &quot;Segoe UI&quot;, Ubuntu, &quot;Droid Sans&quot;, sans-serif, &quot;PingFang SC&quot;; font-size: 11px; text-rendering: geometricprecision; user-select: none;">input_layer</text><title>float32</title></g><path class="node node-border" d="M5,0h58.2099609375a5,5 0 0 1 5,5v13a5,5 0 0 1 -5,5h-58.2099609375a5,5 0 0 1 -5,-5v-13a5,5 0 0 1 5,-5z" style="stroke: rgb(51, 51, 51); fill: none; stroke-width: 1px;"/></g><g id="node-name-conv2d" class="node graph-node" transform="translate(2.4296875,63)" style=""><g class="node-item node-item-type node-item-type-layer" transform="translate(0,0)"><path d="M5,0h89a5,5 0 0 1 5,5v18a0,0 0 0 1 0,0h-99a0,0 0 0 1 0,0v-18a5,5 0 0 1 5,-5z" style="stroke: rgb(0, 0, 0); fill: rgb(51, 85, 136); stroke-width: 0;"/><text x="6" y="16" style="font-family: -apple-system, BlinkMacSystemFont, &quot;Segoe WPC&quot;, &quot;Segoe UI&quot;, Ubuntu, &quot;Droid Sans&quot;, sans-serif, &quot;PingFang SC&quot;; font-size: 11px; text-rendering: geometricprecision; user-select: none; fill: rgb(255, 255, 255);">Conv2D</text><title>conv2d</title></g><g class="node-attribute-list" transform="translate(0,23)"><path d="M0,0h99a0,0 0 0 1 0,0v29a5,5 0 0 1 -5,5h-89a5,5 0 0 1 -5,-5v-29a0,0 0 0 1 0,0z" style="stroke: rgb(0, 0, 0); fill: rgb(255, 255, 255); stroke-width: 0;"/><g class="node-attribute"><text xml:space="preserve" x="6" y="14" style="font-family: -apple-system, BlinkMacSystemFont, &quot;Segoe WPC&quot;, &quot;Segoe UI&quot;, Ubuntu, &quot;Droid Sans&quot;, sans-serif, &quot;PingFang SC&quot;; font-size: 9px; font-weight: normal; text-rendering: geometricprecision; user-select: none;"><title>float32[3,3,3,32]</title><tspan style="font-weight: bold;">kernel</tspan><tspan>〈3×3×3×32〉</tspan></text></g><g class="node-attribute"><text xml:space="preserve" x="6" y="28" style="font-family: -apple-system, BlinkMacSystemFont, &quot;Segoe WPC&quot;, &quot;Segoe UI&quot;, Ubuntu, &quot;Droid Sans&quot;, sans-serif, &quot;PingFang SC&quot;; font-size: 9px; font-weight: normal; text-rendering: geometricprecision; user-select: none;"><title>float32[32]</title><tspan style="font-weight: bold;">bias</tspan><tspan>〈32〉</tspan></text></g><line class="node" x1="0" x2="99" y1="0" y2="0" style="stroke: rgb(51, 51, 51); fill: none; stroke-width: 1px;"/></g><path class="node node-border" d="M5,0h89a5,5 0 0 1 5,5v47a5,5 0 0 1 -5,5h-89a5,5 0 0 1 -5,-5v-47a5,5 0 0 1 5,-5z" style="stroke: rgb(51, 51, 51); fill: none; stroke-width: 1px;"/></g><g id="node-name-activation" class="node graph-node" transform="translate(20.1796875,140)" style=""><g class="node-item node-item-type node-item-type-activation" transform="translate(0,0)"><path d="M5,0h53.5a5,5 0 0 1 5,5v13a5,5 0 0 1 -5,5h-53.5a5,5 0 0 1 -5,-5v-13a5,5 0 0 1 5,-5z" style="stroke: rgb(0, 0, 0); fill: rgb(112, 41, 33); stroke-width: 0;"/><text x="6" y="16" style="font-family: -apple-system, BlinkMacSystemFont, &quot;Segoe WPC&quot;, &quot;Segoe UI&quot;, Ubuntu, &quot;Droid Sans&quot;, sans-serif, &quot;PingFang SC&quot;; font-size: 11px; text-rendering: geometricprecision; user-select: none; fill: rgb(255, 255, 255);">Activation</text><title>activation</title></g><path class="node node-border" d="M5,0h53.5a5,5 0 0 1 5,5v13a5,5 0 0 1 -5,5h-53.5a5,5 0 0 1 -5,-5v-13a5,5 0 0 1 5,-5z" style="stroke: rgb(51, 51, 51); fill: none; stroke-width: 1px;"/></g><g id="node-name-max_pooling2d" class="node graph-node" transform="translate(9.366455078125,183)" style=""><g class="node-item node-item-type node-item-type-pool" transform="translate(0,0)"><path d="M5,0h75.12646484375a5,5 0 0 1 5,5v13a5,5 0 0 1 -5,5h-75.12646484375a5,5 0 0 1 -5,-5v-13a5,5 0 0 1 5,-5z" style="stroke: rgb(0, 0, 0); fill: rgb(51, 85, 51); stroke-width: 0;"/><text x="6" y="16" style="font-family: -apple-system, BlinkMacSystemFont, &quot;Segoe WPC&quot;, &quot;Segoe UI&quot;, Ubuntu, &quot;Droid Sans&quot;, sans-serif, &quot;PingFang SC&quot;; font-size: 11px; text-rendering: geometricprecision; user-select: none; fill: rgb(255, 255, 255);">MaxPooling2D</text><title>max_pooling2d</title></g><path class="node node-border" d="M5,0h75.12646484375a5,5 0 0 1 5,5v13a5,5 0 0 1 -5,5h-75.12646484375a5,5 0 0 1 -5,-5v-13a5,5 0 0 1 5,-5z" style="stroke: rgb(51, 51, 51); fill: none; stroke-width: 1px;"/></g><g id="node-name-conv2d_1" class="node graph-node" transform="translate(0,226)" style=""><g class="node-item node-item-type node-item-type-layer" transform="translate(0,0)"><path d="M5,0h93.859375a5,5 0 0 1 5,5v18a0,0 0 0 1 0,0h-103.859375a0,0 0 0 1 0,0v-18a5,5 0 0 1 5,-5z" style="stroke: rgb(0, 0, 0); fill: rgb(51, 85, 136); stroke-width: 0;"/><text x="6" y="16" style="font-family: -apple-system, BlinkMacSystemFont, &quot;Segoe WPC&quot;, &quot;Segoe UI&quot;, Ubuntu, &quot;Droid Sans&quot;, sans-serif, &quot;PingFang SC&quot;; font-size: 11px; text-rendering: geometricprecision; user-select: none; fill: rgb(255, 255, 255);">Conv2D</text><title>conv2d_1</title></g><g class="node-attribute-list" transform="translate(0,23)"><path d="M0,0h103.859375a0,0 0 0 1 0,0v29a5,5 0 0 1 -5,5h-93.859375a5,5 0 0 1 -5,-5v-29a0,0 0 0 1 0,0z" style="stroke: rgb(0, 0, 0); fill: rgb(255, 255, 255); stroke-width: 0;"/><g class="node-attribute"><text xml:space="preserve" x="6" y="14" style="font-family: -apple-system, BlinkMacSystemFont, &quot;Segoe WPC&quot;, &quot;Segoe UI&quot;, Ubuntu, &quot;Droid Sans&quot;, sans-serif, &quot;PingFang SC&quot;; font-size: 9px; font-weight: normal; text-rendering: geometricprecision; user-select: none;"><title>float32[3,3,32,32]</title><tspan style="font-weight: bold;">kernel</tspan><tspan>〈3×3×32×32〉</tspan></text></g><g class="node-attribute"><text xml:space="preserve" x="6" y="28" style="font-family: -apple-system, BlinkMacSystemFont, &quot;Segoe WPC&quot;, &quot;Segoe UI&quot;, Ubuntu, &quot;Droid Sans&quot;, sans-serif, &quot;PingFang SC&quot;; font-size: 9px; font-weight: normal; text-rendering: geometricprecision; user-select: none;"><title>float32[32]</title><tspan style="font-weight: bold;">bias</tspan><tspan>〈32〉</tspan></text></g><line class="node" x1="0" x2="103.859375" y1="0" y2="0" style="stroke: rgb(51, 51, 51); fill: none; stroke-width: 1px;"/></g><path class="node node-border" d="M5,0h93.859375a5,5 0 0 1 5,5v47a5,5 0 0 1 -5,5h-93.859375a5,5 0 0 1 -5,-5v-47a5,5 0 0 1 5,-5z" style="stroke: rgb(51, 51, 51); fill: none; stroke-width: 1px;"/></g><g id="node-name-activation_1" class="node graph-node" transform="translate(20.1796875,303)" style=""><g class="node-item node-item-type node-item-type-activation" transform="translate(0,0)"><path d="M5,0h53.5a5,5 0 0 1 5,5v13a5,5 0 0 1 -5,5h-53.5a5,5 0 0 1 -5,-5v-13a5,5 0 0 1 5,-5z" style="stroke: rgb(0, 0, 0); fill: rgb(112, 41, 33); stroke-width: 0;"/><text x="6" y="16" style="font-family: -apple-system, BlinkMacSystemFont, &quot;Segoe WPC&quot;, &quot;Segoe UI&quot;, Ubuntu, &quot;Droid Sans&quot;, sans-serif, &quot;PingFang SC&quot;; font-size: 11px; text-rendering: geometricprecision; user-select: none; fill: rgb(255, 255, 255);">Activation</text><title>activation_1</title></g><path class="node node-border" d="M5,0h53.5a5,5 0 0 1 5,5v13a5,5 0 0 1 -5,5h-53.5a5,5 0 0 1 -5,-5v-13a5,5 0 0 1 5,-5z" style="stroke: rgb(51, 51, 51); fill: none; stroke-width: 1px;"/></g><g id="node-name-max_pooling2d_1" class="node graph-node" transform="translate(9.366455078125,346)" style=""><g class="node-item node-item-type node-item-type-pool" transform="translate(0,0)"><path d="M5,0h75.12646484375a5,5 0 0 1 5,5v13a5,5 0 0 1 -5,5h-75.12646484375a5,5 0 0 1 -5,-5v-13a5,5 0 0 1 5,-5z" style="stroke: rgb(0, 0, 0); fill: rgb(51, 85, 51); stroke-width: 0;"/><text x="6" y="16" style="font-family: -apple-system, BlinkMacSystemFont, &quot;Segoe WPC&quot;, &quot;Segoe UI&quot;, Ubuntu, &quot;Droid Sans&quot;, sans-serif, &quot;PingFang SC&quot;; font-size: 11px; text-rendering: geometricprecision; user-select: none; fill: rgb(255, 255, 255);">MaxPooling2D</text><title>max_pooling2d_1</title></g><path class="node node-border" d="M5,0h75.12646484375a5,5 0 0 1 5,5v13a5,5 0 0 1 -5,5h-75.12646484375a5,5 0 0 1 -5,-5v-13a5,5 0 0 1 5,-5z" style="stroke: rgb(51, 51, 51); fill: none; stroke-width: 1px;"/></g><g id="node-name-conv2d_2" class="node graph-node" transform="translate(0,389)" style=""><g class="node-item node-item-type node-item-type-layer" transform="translate(0,0)"><path d="M5,0h93.859375a5,5 0 0 1 5,5v18a0,0 0 0 1 0,0h-103.859375a0,0 0 0 1 0,0v-18a5,5 0 0 1 5,-5z" style="stroke: rgb(0, 0, 0); fill: rgb(51, 85, 136); stroke-width: 0;"/><text x="6" y="16" style="font-family: -apple-system, BlinkMacSystemFont, &quot;Segoe WPC&quot;, &quot;Segoe UI&quot;, Ubuntu, &quot;Droid Sans&quot;, sans-serif, &quot;PingFang SC&quot;; font-size: 11px; text-rendering: geometricprecision; user-select: none; fill: rgb(255, 255, 255);">Conv2D</text><title>conv2d_2</title></g><g class="node-attribute-list" transform="translate(0,23)"><path d="M0,0h103.859375a0,0 0 0 1 0,0v29a5,5 0 0 1 -5,5h-93.859375a5,5 0 0 1 -5,-5v-29a0,0 0 0 1 0,0z" style="stroke: rgb(0, 0, 0); fill: rgb(255, 255, 255); stroke-width: 0;"/><g class="node-attribute"><text xml:space="preserve" x="6" y="14" style="font-family: -apple-system, BlinkMacSystemFont, &quot;Segoe WPC&quot;, &quot;Segoe UI&quot;, Ubuntu, &quot;Droid Sans&quot;, sans-serif, &quot;PingFang SC&quot;; font-size: 9px; font-weight: normal; text-rendering: geometricprecision; user-select: none;"><title>float32[3,3,32,64]</title><tspan style="font-weight: bold;">kernel</tspan><tspan>〈3×3×32×64〉</tspan></text></g><g class="node-attribute"><text xml:space="preserve" x="6" y="28" style="font-family: -apple-system, BlinkMacSystemFont, &quot;Segoe WPC&quot;, &quot;Segoe UI&quot;, Ubuntu, &quot;Droid Sans&quot;, sans-serif, &quot;PingFang SC&quot;; font-size: 9px; font-weight: normal; text-rendering: geometricprecision; user-select: none;"><title>float32[64]</title><tspan style="font-weight: bold;">bias</tspan><tspan>〈64〉</tspan></text></g><line class="node" x1="0" x2="103.859375" y1="0" y2="0" style="stroke: rgb(51, 51, 51); fill: none; stroke-width: 1px;"/></g><path class="node node-border" d="M5,0h93.859375a5,5 0 0 1 5,5v47a5,5 0 0 1 -5,5h-93.859375a5,5 0 0 1 -5,-5v-47a5,5 0 0 1 5,-5z" style="stroke: rgb(51, 51, 51); fill: none; stroke-width: 1px;"/></g><g id="node-name-activation_2" class="node graph-node" transform="translate(20.1796875,466)" style=""><g class="node-item node-item-type node-item-type-activation" transform="translate(0,0)"><path d="M5,0h53.5a5,5 0 0 1 5,5v13a5,5 0 0 1 -5,5h-53.5a5,5 0 0 1 -5,-5v-13a5,5 0 0 1 5,-5z" style="stroke: rgb(0, 0, 0); fill: rgb(112, 41, 33); stroke-width: 0;"/><text x="6" y="16" style="font-family: -apple-system, BlinkMacSystemFont, &quot;Segoe WPC&quot;, &quot;Segoe UI&quot;, Ubuntu, &quot;Droid Sans&quot;, sans-serif, &quot;PingFang SC&quot;; font-size: 11px; text-rendering: geometricprecision; user-select: none; fill: rgb(255, 255, 255);">Activation</text><title>activation_2</title></g><path class="node node-border" d="M5,0h53.5a5,5 0 0 1 5,5v13a5,5 0 0 1 -5,5h-53.5a5,5 0 0 1 -5,-5v-13a5,5 0 0 1 5,-5z" style="stroke: rgb(51, 51, 51); fill: none; stroke-width: 1px;"/></g><g id="node-name-max_pooling2d_2" class="node graph-node" transform="translate(9.366455078125,509)" style=""><g class="node-item node-item-type node-item-type-pool" transform="translate(0,0)"><path d="M5,0h75.12646484375a5,5 0 0 1 5,5v13a5,5 0 0 1 -5,5h-75.12646484375a5,5 0 0 1 -5,-5v-13a5,5 0 0 1 5,-5z" style="stroke: rgb(0, 0, 0); fill: rgb(51, 85, 51); stroke-width: 0;"/><text x="6" y="16" style="font-family: -apple-system, BlinkMacSystemFont, &quot;Segoe WPC&quot;, &quot;Segoe UI&quot;, Ubuntu, &quot;Droid Sans&quot;, sans-serif, &quot;PingFang SC&quot;; font-size: 11px; text-rendering: geometricprecision; user-select: none; fill: rgb(255, 255, 255);">MaxPooling2D</text><title>max_pooling2d_2</title></g><path class="node node-border" d="M5,0h75.12646484375a5,5 0 0 1 5,5v13a5,5 0 0 1 -5,5h-75.12646484375a5,5 0 0 1 -5,-5v-13a5,5 0 0 1 5,-5z" style="stroke: rgb(51, 51, 51); fill: none; stroke-width: 1px;"/></g><g id="node-name-flatten" class="node graph-node" transform="translate(28.390625,552)" style=""><g class="node-item node-item-type node-item-type-shape" transform="translate(0,0)"><path d="M5,0h37.078125a5,5 0 0 1 5,5v13a5,5 0 0 1 -5,5h-37.078125a5,5 0 0 1 -5,-5v-13a5,5 0 0 1 5,-5z" style="stroke: rgb(0, 0, 0); fill: rgb(108, 79, 71); stroke-width: 0;"/><text x="6" y="16" style="font-family: -apple-system, BlinkMacSystemFont, &quot;Segoe WPC&quot;, &quot;Segoe UI&quot;, Ubuntu, &quot;Droid Sans&quot;, sans-serif, &quot;PingFang SC&quot;; font-size: 11px; text-rendering: geometricprecision; user-select: none; fill: rgb(255, 255, 255);">Flatten</text><title>flatten</title></g><path class="node node-border" d="M5,0h37.078125a5,5 0 0 1 5,5v13a5,5 0 0 1 -5,5h-37.078125a5,5 0 0 1 -5,-5v-13a5,5 0 0 1 5,-5z" style="stroke: rgb(51, 51, 51); fill: none; stroke-width: 1px;"/></g><g id="node-name-dense" class="node graph-node" transform="translate(6.15625,595)" style=""><g class="node-item node-item-type node-item-type-layer" transform="translate(0,0)"><path d="M5,0h81.546875a5,5 0 0 1 5,5v18a0,0 0 0 1 0,0h-91.546875a0,0 0 0 1 0,0v-18a5,5 0 0 1 5,-5z" style="stroke: rgb(0, 0, 0); fill: rgb(51, 85, 136); stroke-width: 0;"/><text x="6" y="16" style="font-family: -apple-system, BlinkMacSystemFont, &quot;Segoe WPC&quot;, &quot;Segoe UI&quot;, Ubuntu, &quot;Droid Sans&quot;, sans-serif, &quot;PingFang SC&quot;; font-size: 11px; text-rendering: geometricprecision; user-select: none; fill: rgb(255, 255, 255);">Dense</text><title>dense</title></g><g class="node-attribute-list" transform="translate(0,23)"><path d="M0,0h91.546875a0,0 0 0 1 0,0v29a5,5 0 0 1 -5,5h-81.546875a5,5 0 0 1 -5,-5v-29a0,0 0 0 1 0,0z" style="stroke: rgb(0, 0, 0); fill: rgb(255, 255, 255); stroke-width: 0;"/><g class="node-attribute"><text xml:space="preserve" x="6" y="14" style="font-family: -apple-system, BlinkMacSystemFont, &quot;Segoe WPC&quot;, &quot;Segoe UI&quot;, Ubuntu, &quot;Droid Sans&quot;, sans-serif, &quot;PingFang SC&quot;; font-size: 9px; font-weight: normal; text-rendering: geometricprecision; user-select: none;"><title>float32[2304,64]</title><tspan style="font-weight: bold;">kernel</tspan><tspan>〈2304×64〉</tspan></text></g><g class="node-attribute"><text xml:space="preserve" x="6" y="28" style="font-family: -apple-system, BlinkMacSystemFont, &quot;Segoe WPC&quot;, &quot;Segoe UI&quot;, Ubuntu, &quot;Droid Sans&quot;, sans-serif, &quot;PingFang SC&quot;; font-size: 9px; font-weight: normal; text-rendering: geometricprecision; user-select: none;"><title>float32[64]</title><tspan style="font-weight: bold;">bias</tspan><tspan>〈64〉</tspan></text></g><line class="node" x1="0" x2="91.546875" y1="0" y2="0" style="stroke: rgb(51, 51, 51); fill: none; stroke-width: 1px;"/></g><path class="node node-border" d="M5,0h81.546875a5,5 0 0 1 5,5v47a5,5 0 0 1 -5,5h-81.546875a5,5 0 0 1 -5,-5v-47a5,5 0 0 1 5,-5z" style="stroke: rgb(51, 51, 51); fill: none; stroke-width: 1px;"/></g><g id="node-name-activation_3" class="node graph-node" transform="translate(20.1796875,672)" style=""><g class="node-item node-item-type node-item-type-activation" transform="translate(0,0)"><path d="M5,0h53.5a5,5 0 0 1 5,5v13a5,5 0 0 1 -5,5h-53.5a5,5 0 0 1 -5,-5v-13a5,5 0 0 1 5,-5z" style="stroke: rgb(0, 0, 0); fill: rgb(112, 41, 33); stroke-width: 0;"/><text x="6" y="16" style="font-family: -apple-system, BlinkMacSystemFont, &quot;Segoe WPC&quot;, &quot;Segoe UI&quot;, Ubuntu, &quot;Droid Sans&quot;, sans-serif, &quot;PingFang SC&quot;; font-size: 11px; text-rendering: geometricprecision; user-select: none; fill: rgb(255, 255, 255);">Activation</text><title>activation_3</title></g><path class="node node-border" d="M5,0h53.5a5,5 0 0 1 5,5v13a5,5 0 0 1 -5,5h-53.5a5,5 0 0 1 -5,-5v-13a5,5 0 0 1 5,-5z" style="stroke: rgb(51, 51, 51); fill: none; stroke-width: 1px;"/></g><g id="node-name-dropout" class="node graph-node" transform="translate(24.369873046875,715)" style=""><g class="node-item node-item-type node-item-type-dropout" transform="translate(0,0)"><path d="M5,0h45.11962890625a5,5 0 0 1 5,5v13a5,5 0 0 1 -5,5h-45.11962890625a5,5 0 0 1 -5,-5v-13a5,5 0 0 1 5,-5z" style="stroke: rgb(0, 0, 0); fill: rgb(69, 71, 112); stroke-width: 0;"/><text x="6" y="16" style="font-family: -apple-system, BlinkMacSystemFont, &quot;Segoe WPC&quot;, &quot;Segoe UI&quot;, Ubuntu, &quot;Droid Sans&quot;, sans-serif, &quot;PingFang SC&quot;; font-size: 11px; text-rendering: geometricprecision; user-select: none; fill: rgb(255, 255, 255);">Dropout</text><title>dropout</title></g><path class="node node-border" d="M5,0h45.11962890625a5,5 0 0 1 5,5v13a5,5 0 0 1 -5,5h-45.11962890625a5,5 0 0 1 -5,-5v-13a5,5 0 0 1 5,-5z" style="stroke: rgb(51, 51, 51); fill: none; stroke-width: 1px;"/></g><g id="node-name-dense_1" class="node graph-node" transform="translate(13.4375,758)" style=""><g class="node-item node-item-type node-item-type-layer" transform="translate(0,0)"><path d="M5,0h66.984375a5,5 0 0 1 5,5v18a0,0 0 0 1 0,0h-76.984375a0,0 0 0 1 0,0v-18a5,5 0 0 1 5,-5z" style="stroke: rgb(0, 0, 0); fill: rgb(51, 85, 136); stroke-width: 0;"/><text x="6" y="16" style="font-family: -apple-system, BlinkMacSystemFont, &quot;Segoe WPC&quot;, &quot;Segoe UI&quot;, Ubuntu, &quot;Droid Sans&quot;, sans-serif, &quot;PingFang SC&quot;; font-size: 11px; text-rendering: geometricprecision; user-select: none; fill: rgb(255, 255, 255);">Dense</text><title>dense_1</title></g><g class="node-attribute-list" transform="translate(0,23)"><path d="M0,0h76.984375a0,0 0 0 1 0,0v29a5,5 0 0 1 -5,5h-66.984375a5,5 0 0 1 -5,-5v-29a0,0 0 0 1 0,0z" style="stroke: rgb(0, 0, 0); fill: rgb(255, 255, 255); stroke-width: 0;"/><g class="node-attribute"><text xml:space="preserve" x="6" y="14" style="font-family: -apple-system, BlinkMacSystemFont, &quot;Segoe WPC&quot;, &quot;Segoe UI&quot;, Ubuntu, &quot;Droid Sans&quot;, sans-serif, &quot;PingFang SC&quot;; font-size: 9px; font-weight: normal; text-rendering: geometricprecision; user-select: none;"><title>float32[64,3]</title><tspan style="font-weight: bold;">kernel</tspan><tspan>〈64×3〉</tspan></text></g><g class="node-attribute"><text xml:space="preserve" x="6" y="28" style="font-family: -apple-system, BlinkMacSystemFont, &quot;Segoe WPC&quot;, &quot;Segoe UI&quot;, Ubuntu, &quot;Droid Sans&quot;, sans-serif, &quot;PingFang SC&quot;; font-size: 9px; font-weight: normal; text-rendering: geometricprecision; user-select: none;"><title>float32[3]</title><tspan style="font-weight: bold;">bias</tspan><tspan>〈3〉</tspan></text></g><line class="node" x1="0" x2="76.984375" y1="0" y2="0" style="stroke: rgb(51, 51, 51); fill: none; stroke-width: 1px;"/></g><path class="node node-border" d="M5,0h66.984375a5,5 0 0 1 5,5v47a5,5 0 0 1 -5,5h-66.984375a5,5 0 0 1 -5,-5v-47a5,5 0 0 1 5,-5z" style="stroke: rgb(51, 51, 51); fill: none; stroke-width: 1px;"/></g><g id="node-name-activation_4" class="node graph-node" transform="translate(20.1796875,835)" style=""><g class="node-item node-item-type node-item-type-activation" transform="translate(0,0)"><path d="M5,0h53.5a5,5 0 0 1 5,5v13a5,5 0 0 1 -5,5h-53.5a5,5 0 0 1 -5,-5v-13a5,5 0 0 1 5,-5z" style="stroke: rgb(0, 0, 0); fill: rgb(112, 41, 33); stroke-width: 0;"/><text x="6" y="16" style="font-family: -apple-system, BlinkMacSystemFont, &quot;Segoe WPC&quot;, &quot;Segoe UI&quot;, Ubuntu, &quot;Droid Sans&quot;, sans-serif, &quot;PingFang SC&quot;; font-size: 11px; text-rendering: geometricprecision; user-select: none; fill: rgb(255, 255, 255);">Activation</text><title>activation_4</title></g><path class="node node-border" d="M5,0h53.5a5,5 0 0 1 5,5v13a5,5 0 0 1 -5,5h-53.5a5,5 0 0 1 -5,-5v-13a5,5 0 0 1 5,-5z" style="stroke: rgb(51, 51, 51); fill: none; stroke-width: 1px;"/></g><g class="node" transform="translate(16.1484375,878)" style=""><g class="node-item graph-item-output" transform="translate(0,0)"><path d="M5,0h61.5625a5,5 0 0 1 5,5v13a5,5 0 0 1 -5,5h-61.5625a5,5 0 0 1 -5,-5v-13a5,5 0 0 1 5,-5z" style="stroke: rgb(0, 0, 0); fill: rgb(238, 238, 238); stroke-width: 0;"/><text x="6" y="16" style="font-family: -apple-system, BlinkMacSystemFont, &quot;Segoe WPC&quot;, &quot;Segoe UI&quot;, Ubuntu, &quot;Droid Sans&quot;, sans-serif, &quot;PingFang SC&quot;; font-size: 11px; text-rendering: geometricprecision; user-select: none;">activation_4</text></g><path class="node node-border" d="M5,0h61.5625a5,5 0 0 1 5,5v13a5,5 0 0 1 -5,5h-61.5625a5,5 0 0 1 -5,-5v-13a5,5 0 0 1 5,-5z" style="stroke: rgb(51, 51, 51); fill: none; stroke-width: 1px;"/></g></g></g></svg>